<?xml version="1.0" encoding="UTF-8" standalone="no"?>
<!-- Created with Inkscape (http://www.inkscape.org/) -->
<svg
   xmlns:dc="http://purl.org/dc/elements/1.1/"
   xmlns:cc="http://creativecommons.org/ns#"
   xmlns:rdf="http://www.w3.org/1999/02/22-rdf-syntax-ns#"
   xmlns:svg="http://www.w3.org/2000/svg"
   xmlns="http://www.w3.org/2000/svg"
   xmlns:sodipodi="http://sodipodi.sourceforge.net/DTD/sodipodi-0.dtd"
   xmlns:inkscape="http://www.inkscape.org/namespaces/inkscape"
   id="svg2"
   sodipodi:version="0.32"
   inkscape:version="0.46"
   width="120"
   height="111.93"
   xml:space="preserve"
   sodipodi:docname="Logo der ISO.svg"
   version="1.0"
   inkscape:output_extension="org.inkscape.output.svg.inkscape"><metadata
     id="metadata7"><rdf:RDF><cc:Work
         rdf:about=""><dc:format>image/svg+xml</dc:format><dc:type
           rdf:resource="http://purl.org/dc/dcmitype/StillImage" /></cc:Work></rdf:RDF></metadata><defs
     id="defs5"><inkscape:perspective
       sodipodi:type="inkscape:persp3d"
       inkscape:vp_x="0 : 526.18109 : 1"
       inkscape:vp_y="0 : 1000 : 0"
       inkscape:vp_z="744.09448 : 526.18109 : 1"
       inkscape:persp3d-origin="372.04724 : 350.78739 : 1"
       id="perspective9" /><clipPath
       clipPathUnits="userSpaceOnUse"
       id="clipPath17"><path
         d="M 0,0 L 595.27559,0 L 595.27559,841.88977 L 0,841.88977 L 0,0 z"
         id="path19" /></clipPath><clipPath
       clipPathUnits="userSpaceOnUse"
       id="clipPath25"><path
         d="M -169.91499,-113.755 L -169.91499,83.51878 L 102.97067,83.51878 L 102.97067,-113.755 L -169.91499,-113.755 z"
         id="path27" /></clipPath></defs><sodipodi:namedview
     inkscape:window-height="667"
     inkscape:window-width="872"
     inkscape:pageshadow="2"
     inkscape:pageopacity="0.0"
     guidetolerance="10.0"
     gridtolerance="10.0"
     objecttolerance="10.0"
     borderopacity="1.0"
     bordercolor="#666666"
     pagecolor="#ffffff"
     id="base"
     showgrid="false"
     inkscape:zoom="1.17"
     inkscape:cx="-88.803419"
     inkscape:cy="74.121048"
     inkscape:window-x="88"
     inkscape:window-y="146"
     inkscape:current-layer="g11" /><g
     id="g11"
     inkscape:groupmode="layer"
     inkscape:label="codeethics_2004"
     transform="matrix(1.25,0,0,-1.25,-260.66452,468.06343)"><g
       id="g2537"
       transform="translate(8.0000213,-8.0007263)"><path
         d="M 273.46432,342.84535 C 274.00242,342.02032 273.9667,340.9441 274.07425,339.9754 C 274.03815,337.93066 274.21752,335.49128 273.85877,333.41028 C 273.67942,332.54949 273.10557,331.65261 272.20872,331.32963 C 270.77375,330.68394 268.83633,330.86334 267.50928,331.61656 C 266.39696,332.40586 266.25368,333.73328 266.11003,334.98891 C 266.00248,337.46438 265.82311,340.08313 266.50451,342.34313 C 267.04263,343.74222 268.5137,344.10095 269.84113,344.20868 C 271.24002,344.20868 272.60317,343.9934 273.46432,342.84535 z"
         style="fill:#2a3e92;fill-opacity:1;fill-rule:nonzero;stroke:none"
         id="path45" /><path
         d="M 208.53161,300.90819 L 208.53161,374.45075 L 288.53158,374.45075 L 288.53158,300.90819 L 208.53161,300.90819 z M 250.71979,365.66151 C 249.75145,365.76908 248.5675,365.80498 247.52717,365.69743 C 247.13252,365.73333 246.66602,365.69743 246.19975,365.66151 C 237.5899,364.97993 229.66161,360.49563 224.71099,352.85429 C 225.06974,352.89017 225.50014,352.74674 225.85887,352.89017 C 226.72002,354.10989 227.68851,355.29384 228.76476,356.44171 C 229.69751,357.33856 230.55846,358.19971 231.56304,358.84536 C 232.49564,358.23544 233.53614,357.73324 234.43299,357.15921 C 233.32086,355.76012 232.17281,354.36109 231.34778,352.85429 C 231.59876,352.74674 232.06526,352.78262 232.42401,352.85429 C 233.32086,354.18171 234.28938,355.50914 235.43743,356.69291 C 236.97996,356.11891 238.48675,355.50914 240.06518,355.07856 C 240.06518,355.07856 240.20865,354.93509 240.20865,354.93509 C 240.20865,354.93509 239.3118,352.85429 239.3118,352.85429 C 239.70643,352.78262 239.95763,352.81856 240.3523,352.85429 C 240.67511,353.46422 240.92613,354.14577 241.28488,354.75572 C 243.36568,354.28926 245.55407,354.03822 247.7782,353.96642 C 248.06527,353.71541 247.85002,353.17729 247.95757,352.85429 C 247.95757,352.85429 248.92624,352.85429 248.92624,352.85429 C 249.03379,353.21302 248.89032,353.60767 249.03379,353.93051 C 251.1146,354.03822 253.30282,354.25354 255.31201,354.75572 C 255.31201,354.75572 255.49139,354.71982 255.49139,354.71982 C 255.49139,354.71982 256.45969,352.85429 256.45969,352.85429 C 256.78271,352.85429 257.21326,352.78262 257.46446,352.92611 C 257.46446,352.92611 256.56761,355.00674 256.56761,355.00674 C 256.56761,355.00674 256.63906,355.07856 256.63906,355.07856 C 258.28951,355.50914 259.83203,356.15479 261.41064,356.80046 C 262.52261,355.61669 263.56311,354.21759 264.49568,352.85429 C 264.89016,352.85429 265.28501,352.81856 265.57193,352.92611 C 265.14136,353.71541 264.60323,354.50452 264.02941,355.18611 C 263.56311,355.86786 263.06071,356.47764 262.45078,357.12349 C 262.45078,357.12349 262.45078,357.30284 262.45078,357.30284 L 264.96198,358.77354 C 264.96198,358.77354 265.32073,358.91719 265.32073,358.91719 C 267.50928,357.23104 269.44632,355.18611 270.98883,352.92611 C 271.4194,352.92611 271.77815,352.78262 272.1369,352.96199 C 267.32991,360.28034 259.40146,364.97993 250.82767,365.66151 C 250.82767,365.66151 250.79162,365.5897 250.79162,365.5897 C 250.79162,365.5897 250.71979,365.66151 250.71979,365.66151 z M 254.41514,364.04716 C 254.41514,364.04716 254.41514,363.97536 254.41514,363.97536 C 251.29397,361.67943 246.23567,361.46413 242.93515,363.58086 C 242.75577,363.72433 242.397,363.79598 242.3611,364.04716 C 246.16385,364.94401 250.64832,365.01583 254.41514,364.04716 z M 264.28058,359.67041 C 264.28058,359.67041 264.20878,359.52696 264.20878,359.52696 L 261.73329,358.12789 C 261.73329,358.12789 261.55393,358.12789 261.55393,358.12789 C 259.65266,360.06508 257.42836,361.75126 255.16836,363.07846 C 255.24019,363.32966 255.59894,363.50903 255.85011,363.68841 C 258.86334,362.89911 261.69756,361.53596 264.28058,359.67041 z M 241.67953,363.07846 C 239.45543,361.67943 237.26706,360.02916 235.25806,358.02034 C 234.28938,358.37909 233.39253,358.91719 232.53156,359.52696 C 232.53156,359.52696 232.53156,359.59878 232.53156,359.59878 C 234.79174,361.28476 237.30298,362.54036 239.95763,363.40148 C 240.06518,363.50903 240.137,363.61658 240.28048,363.61658 C 240.28048,363.61658 240.28048,363.54496 240.28048,363.54496 C 240.5674,363.47313 240.78266,363.79598 241.03385,363.58086 C 241.24915,363.40148 241.50015,363.25784 241.67953,363.07846 z M 260.51378,357.66159 C 260.51378,357.66159 260.44196,357.55388 260.44196,357.55388 C 259.04271,356.94411 257.60774,356.37007 256.06521,356.04724 C 254.95326,357.94851 253.73339,359.84979 252.3702,361.67943 C 252.87226,361.96651 253.48219,362.18161 254.02031,362.46873 C 256.35214,361.28476 258.61216,359.59878 260.51378,357.66159 z M 244.37012,361.75126 C 244.37012,361.75126 244.26255,361.46413 244.26255,361.46413 C 242.89923,359.74224 241.823,357.87669 240.74678,356.04724 C 240.74678,356.04724 240.60328,356.01132 240.60328,356.01132 C 239.13243,356.40599 237.69745,356.87229 236.3343,357.48221 C 236.3343,357.48221 236.40608,357.69731 236.40608,357.69731 C 238.3792,359.59878 240.45985,361.17721 242.75577,362.39691 C 243.2939,362.18161 243.83202,362.00224 244.37012,361.75126 z M 247.85002,361.06966 C 247.95757,359.20411 247.8859,357.05166 247.8859,355.07856 C 246.88134,354.93509 245.98447,355.11447 244.98007,355.18611 C 244.0114,355.32976 242.79168,355.43731 241.823,355.76012 C 242.8635,357.73324 244.08318,359.63469 245.55407,361.39251 C 245.55407,361.39251 247.85002,361.06966 247.85002,361.06966 z M 251.22215,361.35658 C 252.62139,359.56286 253.98454,357.73324 254.91716,355.76012 C 252.98014,355.29384 251.00705,355.04264 248.99787,355.04264 C 248.92624,356.94411 248.96215,359.06066 248.99787,361.03376 C 249.71535,361.14131 250.50467,361.24903 251.22215,361.35658 z M 248.31632,349.15929 C 244.37012,350.84547 238.8455,351.02484 235.25806,348.40587 C 232.92619,346.684 232.20871,343.59875 232.81864,340.87228 C 233.28494,338.28941 235.72436,336.38813 238.05618,335.49128 C 241.24915,334.34323 244.5854,333.51816 247.8141,332.40586 C 248.13694,332.26256 248.5675,331.93958 248.49567,331.54506 C 248.49567,331.22208 248.17282,331.04271 247.92165,330.89908 C 244.5495,329.96646 240.8904,330.68394 238.45083,333.26701 C 238.16391,333.62573 237.98453,334.05629 237.69745,334.41501 C 237.69745,334.41501 232.85441,334.37896 232.85441,334.37896 C 232.78276,331.47324 232.74684,328.13701 232.85441,325.26707 C 232.85441,325.26707 238.23555,325.30279 238.23555,325.30279 C 238.23555,325.30279 238.30738,327.02469 238.30738,327.02469 C 238.91733,326.73777 239.52706,326.37902 240.137,326.05599 C 243.8679,324.47774 248.67505,324.11902 252.3702,326.05599 C 255.06081,327.56279 256.49579,330.46884 256.10094,333.58966 C 255.70649,336.63896 252.83654,339.40138 249.93082,340.15478 C 249.93082,340.15478 241.24915,342.70188 241.24915,342.70188 C 241.24915,342.70188 240.60328,343.02473 240.60328,343.02473 C 240.31638,343.27592 240.137,343.59875 240.20865,343.9934 C 240.8904,345.1772 242.46883,344.81845 243.65265,344.78252 C 246.16385,344.42378 248.74687,343.56285 250.21775,341.231 C 251.79602,341.231 253.6258,341.19508 255.34774,341.2669 C 255.41956,344.20868 255.31201,346.79155 255.27591,349.7692 C 253.66156,349.80497 251.68847,349.80497 250.0741,349.7333 C 250.00232,349.30274 250.14592,348.69297 249.96655,348.26244 C 249.96655,348.26244 248.31632,349.15929 248.31632,349.15929 z M 278.73792,348.01124 C 274.07425,351.02484 266.97118,351.23994 262.16386,348.5136 C 259.54511,347.15027 257.82321,344.4597 257.28509,341.69748 C 256.31641,337.14136 256.56761,331.72444 260.01141,328.31639 C 264.02941,324.72894 269.87687,323.93964 275.07867,325.41034 C 275.3253,325.45974 276.11005,325.66154 276.64815,325.95302 C 276.64815,325.95302 276.80055,326.02027 276.80055,326.02027 C 278.41489,326.70204 279.95742,327.81399 281.10547,329.32079 C 283.76032,333.26701 283.93969,339.18628 282.32534,343.63467 C 281.67969,345.35657 280.35227,346.89925 278.73792,348.01124 z M 217.78715,350.16372 C 217.78715,350.16372 215.56303,350.12795 215.56303,350.12795 C 215.5271,348.22652 215.5271,346.0024 215.56303,344.06503 C 216.7827,344.0293 217.93075,344.06503 219.11457,343.95748 C 219.11457,343.95748 219.11457,331.76021 219.11457,331.76021 L 219.07865,331.25781 C 219.07865,331.25781 215.5271,331.18634 215.5271,331.18634 C 215.45532,329.17718 215.45532,327.24014 215.5271,325.26707 C 215.5271,325.26707 231.34778,325.26707 231.34778,325.26707 C 231.34778,325.26707 231.34778,331.18634 231.34778,331.18634 C 230.16379,331.25781 228.83659,331.15026 227.68851,331.29389 C 227.68851,331.29389 227.72442,343.88565 227.72442,343.88565 L 227.79624,343.9934 C 227.79624,343.9934 231.34778,344.0293 231.34778,344.0293 C 231.38366,346.07405 231.41941,348.26244 231.31186,350.12795 C 231.31186,350.12795 217.78715,350.16372 217.78715,350.16372 z M 240.53168,322.61222 C 240.17293,322.61222 239.77825,322.68404 239.52706,322.57649 C 239.52706,322.57649 240.42391,320.45975 240.42391,320.45975 C 240.42391,320.45975 240.31638,320.3522 240.31638,320.3522 C 238.70203,319.88555 237.1236,319.3117 235.58088,318.66602 C 235.58088,318.66602 235.43743,318.73785 235.43743,318.73785 C 234.43299,319.84982 233.46431,321.06969 232.67501,322.28919 C 232.49564,322.89914 231.77814,322.54039 231.38366,322.61222 C 232.24464,321.03397 233.39253,319.63472 234.54054,318.19975 C 233.57191,317.62588 232.60338,316.97987 231.59876,316.51357 C 229.44631,318.16398 227.43749,320.31647 225.93069,322.57649 C 225.50014,322.64794 225.21322,322.61222 224.78264,322.57649 C 227.36567,318.48667 231.38366,314.89922 235.58088,312.78283 C 235.58088,312.78283 235.58088,312.81856 235.61681,312.81856 C 235.65271,312.81856 235.72436,312.74673 235.65271,312.71068 C 238.48675,311.31176 241.50015,310.30736 244.69295,309.87678 C 255.70649,308.40575 266.21758,313.1773 272.31627,322.57649 C 271.99362,322.61222 271.52695,322.61222 271.1682,322.57649 C 269.66175,320.38792 267.76011,318.2712 265.67948,316.62112 C 265.60766,316.51357 265.39256,316.54963 265.32073,316.65685 C 264.42388,317.23105 263.45518,317.69735 262.59443,318.2712 C 263.74248,319.67045 264.85443,321.06969 265.71556,322.61222 C 265.71556,322.61222 264.60323,322.61222 264.60323,322.61222 C 263.70638,321.28479 262.77381,319.88555 261.59001,318.7021 C 260.01141,319.34742 258.57643,319.92164 256.96209,320.3522 C 256.96209,320.3522 256.78271,320.49585 256.78271,320.49585 C 257.03391,321.21334 257.50019,321.89472 257.64384,322.61222 C 257.64384,322.61222 256.67516,322.61222 256.67516,322.61222 C 256.67516,322.61222 255.70649,320.67522 255.70649,320.67522 C 253.58974,321.14115 251.25792,321.3927 249.10562,321.53597 C 248.99787,321.859 249.14152,322.32529 248.99787,322.61222 C 248.99787,322.61222 248.06527,322.61222 248.06527,322.61222 C 247.99345,322.18165 248.17282,321.859 247.95757,321.49989 C 245.73345,321.3927 243.58098,321.14115 241.50015,320.71095 C 241.50015,320.71095 240.53168,322.61222 240.53168,322.61222 z M 248.06527,314.3611 C 247.3119,314.18175 246.48667,314.18175 245.76917,314.00237 C 244.29847,315.76 243.0786,317.66162 242.03825,319.63472 C 242.03825,319.63472 242.21763,319.77837 242.21763,319.77837 C 244.08318,320.1371 246.02037,320.42365 248.02939,320.42365 C 248.02939,320.42365 248.06527,314.3611 248.06527,314.3611 z M 255.13264,319.70617 C 255.13264,319.70617 255.16836,319.599 255.16836,319.599 C 254.16392,317.66162 252.90832,315.79608 251.54517,314.03843 C 250.93522,313.96628 250.36104,314.2178 249.75145,314.25353 C 249.75145,314.25353 249.14152,314.32502 249.14152,314.32502 C 249.0697,316.44175 249.03379,318.3073 249.14152,320.42365 C 251.18642,320.38792 253.23099,320.17282 255.13264,319.70617 z M 240.96203,319.38352 C 242.00238,317.41042 243.2939,315.5449 244.5854,313.67968 C 244.08318,313.39243 243.47327,313.21305 242.97105,312.92611 C 240.60328,314.10992 238.34328,315.76 236.44185,317.73307 C 236.44185,317.73307 236.44185,317.841 236.44185,317.841 C 237.8411,318.52273 239.3118,319.02477 240.81858,319.41962 C 240.81858,319.41962 240.96203,319.38352 240.96203,319.38352 z M 260.69316,317.87672 C 259.54511,316.54963 258.07404,315.40125 256.71089,314.4329 C 255.88584,313.93055 255.06081,313.39243 254.19969,312.9622 C 254.19969,312.9622 252.65716,313.64363 252.65716,313.64363 C 252.65716,313.64363 252.76471,313.89478 252.76471,313.89478 C 254.05641,315.65278 255.20409,317.4465 256.20886,319.34742 C 256.20886,319.34742 256.31641,319.41962 256.31641,319.41962 C 257.85894,319.06085 259.32964,318.55847 260.69316,317.87672 z M 264.53141,315.83215 C 262.52261,314.2178 260.19076,313.14158 257.82321,312.24471 C 257.82321,312.24471 256.13704,311.7066 256.13704,311.7066 C 255.85011,311.84988 255.59894,312.06533 255.34774,312.28043 C 255.34774,312.28043 255.41956,312.38798 255.41956,312.38798 C 257.71529,313.75118 259.79631,315.40125 261.76938,317.37432 C 262.73771,316.97987 263.67066,316.44175 264.53141,315.83215 z M 241.78728,312.28043 C 241.6079,312.06533 241.32078,311.84988 241.06978,311.7066 C 238.05618,312.49558 235.25806,313.85905 232.67501,315.72427 C 232.67501,315.72427 232.67501,315.83215 232.67501,315.83215 C 233.53614,316.37025 234.39711,316.94415 235.32986,317.3386 C 237.37461,315.29403 239.49115,313.75118 241.78728,312.28043 z M 254.63024,311.45508 C 254.73779,311.23993 254.45087,311.31176 254.37906,311.23993 C 250.57649,310.41491 246.34322,310.37883 242.54048,311.31176 C 242.46883,311.49113 242.71985,311.52723 242.82758,311.63443 C 246.16385,313.823 251.3658,313.823 254.63024,311.45508 z"
         style="fill:#2a3e92;fill-opacity:1;fill-rule:nonzero;stroke:none"
         id="path47" /></g><rect
       style="opacity:1;fill:none;fill-opacity:0.98717945;stroke:none;stroke-width:0.63436121;stroke-miterlimit:4;stroke-dasharray:none;stroke-opacity:1"
       id="rect2386"
       width="71.365639"
       height="71.365639"
       x="220.8488"
       y="-365.36157"
       transform="scale(1,-1)" /></g></svg>