<?xml version="1.0" encoding="utf-8"?>
<!-- Generator: Adobe Illustrator 21.0.0, SVG Export Plug-In . SVG Version: 6.00 Build 0)  -->
<svg version="1.1"
	 id="svg2" inkscape:output_extension="org.inkscape.output.svg.inkscape" inkscape:version="0.46" sodipodi:docname="Logo der ISO.svg" sodipodi:version="0.32" xmlns:cc="http://creativecommons.org/ns#" xmlns:dc="http://purl.org/dc/elements/1.1/" xmlns:inkscape="http://www.inkscape.org/namespaces/inkscape" xmlns:rdf="http://www.w3.org/1999/02/22-rdf-syntax-ns#" xmlns:sodipodi="http://sodipodi.sourceforge.net/DTD/sodipodi-0.dtd" xmlns:svg="http://www.w3.org/2000/svg"
	 xmlns="http://www.w3.org/2000/svg" xmlns:xlink="http://www.w3.org/1999/xlink" x="0px" y="0px" viewBox="0 0 120 111.9"
	 style="enable-background:new 0 0 120 111.9;" xml:space="preserve">
<style type="text/css">
	.st0{fill:#2A3E92;}
</style>
<g id="g2537_1_" transform="translate(8.0000213,-8.0007263)">
	<path id="path45_1_" class="st0" d="M-37.6,62.5c0.7,1,0.6,2.4,0.8,3.6c0,2.6,0.2,5.6-0.3,8.2c-0.2,1.1-0.9,2.2-2.1,2.6
		c-1.8,0.8-4.2,0.6-5.9-0.4c-1.4-1-1.6-2.6-1.7-4.2c-0.1-3.1-0.4-6.4,0.5-9.2c0.7-1.7,2.5-2.2,4.2-2.3
		C-40.4,60.8-38.7,61.1-37.6,62.5z"/>
	<path id="path47_1_" class="st0" d="M-118.7,114.9V23h100v91.9H-118.7z M-66,34c-1.2-0.1-2.7-0.2-4,0c-0.5,0-1.1,0-1.7,0
		c-10.8,0.9-20.7,6.5-26.9,16c0.4,0,1,0.1,1.4,0c1.1-1.5,2.3-3,3.6-4.4c1.2-1.1,2.2-2.2,3.5-3c1.2,0.8,2.5,1.4,3.6,2.1
		c-1.4,1.7-2.8,3.5-3.9,5.4c0.3,0.1,0.9,0.1,1.3,0c1.1-1.7,2.3-3.3,3.8-4.8c1.9,0.7,3.8,1.5,5.8,2l0.2,0.2l-1.1,2.6
		c0.5,0.1,0.8,0,1.3,0c0.4-0.8,0.7-1.6,1.2-2.4c2.6,0.6,5.3,0.9,8.1,1c0.4,0.3,0.1,1,0.2,1.4h1.2c0.1-0.4,0-0.9,0.1-1.3
		c2.6-0.1,5.3-0.4,7.8-1l0.2,0l1.2,2.3c0.4,0,0.9,0.1,1.3-0.1l-1.1-2.6l0.1-0.1c2.1-0.5,4-1.3,6-2.2c1.4,1.5,2.7,3.2,3.9,4.9
		c0.5,0,1,0,1.3-0.1c-0.5-1-1.2-2-1.9-2.8c-0.6-0.9-1.2-1.6-2-2.4v-0.2l3.1-1.8l0.4-0.2c2.7,2.1,5.2,4.7,7.1,7.5c0.5,0,1,0.2,1.4,0
		c-6-9.1-15.9-15-26.6-15.9H-66L-66,34z M-61.4,36L-61.4,36c-3.9,3-10.2,3.2-14.3,0.6c-0.2-0.2-0.7-0.3-0.7-0.6
		C-71.7,34.9-66.1,34.8-61.4,36z M-49.1,41.5l-0.1,0.2l-3.1,1.7h-0.2c-2.4-2.4-5.2-4.5-8-6.2c0.1-0.3,0.5-0.5,0.9-0.8
		C-55.8,37.5-52.3,39.2-49.1,41.5z M-77.3,37.2c-2.8,1.7-5.5,3.8-8,6.3c-1.2-0.4-2.3-1.1-3.4-1.9v-0.1c2.8-2.1,6-3.7,9.3-4.8
		c0.1-0.1,0.2-0.3,0.4-0.3v0.1c0.4,0.1,0.6-0.3,0.9,0C-77.9,36.8-77.5,37-77.3,37.2z M-53.8,44l-0.1,0.1c-1.7,0.8-3.5,1.5-5.5,1.9
		c-1.4-2.4-2.9-4.8-4.6-7c0.6-0.4,1.4-0.6,2.1-1C-59,39.5-56.1,41.6-53.8,44z M-74,38.9l-0.1,0.4c-1.7,2.2-3,4.5-4.4,6.8l-0.2,0
		c-1.8-0.5-3.6-1.1-5.3-1.8l0.1-0.3c2.5-2.4,5.1-4.3,7.9-5.9C-75.3,38.3-74.6,38.6-74,38.9z M-69.6,39.7c0.1,2.3,0,5,0,7.5
		c-1.3,0.2-2.4,0-3.6-0.1c-1.2-0.2-2.7-0.3-3.9-0.7c1.3-2.5,2.8-4.8,4.7-7L-69.6,39.7z M-65.4,39.4c1.7,2.2,3.5,4.5,4.6,7
		c-2.4,0.6-4.9,0.9-7.4,0.9c-0.1-2.4,0-5,0-7.5C-67.3,39.6-66.3,39.5-65.4,39.4z M-69,54.6c-4.9-2.1-11.8-2.3-16.3,0.9
		c-2.9,2.2-3.8,6-3,9.4c0.6,3.2,3.6,5.6,6.5,6.7c4,1.4,8.2,2.5,12.2,3.9c0.4,0.2,0.9,0.6,0.9,1.1c0,0.4-0.4,0.6-0.7,0.8
		c-4.2,1.2-8.8,0.3-11.8-3c-0.4-0.4-0.6-1-0.9-1.4l-6.1,0c-0.1,3.6-0.1,7.8,0,11.4l6.7,0l0.1-2.2c0.8,0.4,1.5,0.8,2.3,1.2
		c4.7,2,10.7,2.4,15.3,0c3.4-1.9,5.2-5.5,4.7-9.4c-0.5-3.8-4.1-7.3-7.7-8.2l-10.9-3.2l-0.8-0.4c-0.4-0.3-0.6-0.7-0.5-1.2
		c0.9-1.5,2.8-1,4.3-1c3.1,0.4,6.4,1.5,8.2,4.4c2,0,4.3,0,6.4,0c0.1-3.7,0-6.9-0.1-10.6c-2,0-4.5,0-6.5,0c-0.1,0.5,0.1,1.3-0.1,1.8
		L-69,54.6z M-31,56.1c-5.8-3.8-14.7-4-20.7-0.6c-3.3,1.7-5.4,5.1-6.1,8.5c-1.2,5.7-0.9,12.5,3.4,16.7c5,4.5,12.3,5.5,18.8,3.6
		c0.3-0.1,1.3-0.3,2-0.7l0.2-0.1c2-0.9,3.9-2.2,5.4-4.1c3.3-4.9,3.5-12.3,1.5-17.9C-27.3,59.4-29,57.5-31,56.1z M-107.2,53.4l-2.8,0
		c0,2.4,0,5.2,0,7.6c1.5,0,3,0,4.4,0.1v15.2l0,0.6l-4.4,0.1c-0.1,2.5-0.1,4.9,0,7.4h19.8v-7.4c-1.5-0.1-3.1,0-4.6-0.1l0-15.7
		l0.1-0.1l4.4,0c0-2.6,0.1-5.3,0-7.6L-107.2,53.4z M-78.7,87.8c-0.4,0-0.9-0.1-1.3,0l1.1,2.6l-0.1,0.1c-2,0.6-4,1.3-5.9,2.1
		l-0.2-0.1c-1.3-1.4-2.5-2.9-3.5-4.4c-0.2-0.8-1.1-0.3-1.6-0.4c1.1,2,2.5,3.7,3.9,5.5c-1.2,0.7-2.4,1.5-3.7,2.1
		c-2.7-2.1-5.2-4.8-7.1-7.6c-0.5-0.1-0.9,0-1.4,0c3.2,5.1,8.3,9.6,13.5,12.2c0,0,0,0,0,0c0,0,0.1,0.1,0,0.1c3.5,1.7,7.3,3,11.3,3.5
		c13.8,1.8,26.9-4.1,34.5-15.9c-0.4,0-1,0-1.4,0c-1.9,2.7-4.3,5.4-6.9,7.4c-0.1,0.1-0.4,0.1-0.4,0c-1.1-0.7-2.3-1.3-3.4-2
		c1.4-1.7,2.8-3.5,3.9-5.4h-1.4c-1.1,1.7-2.3,3.4-3.8,4.9c-2-0.8-3.8-1.5-5.8-2.1l-0.2-0.2c0.3-0.9,0.9-1.7,1.1-2.6h-1.2l-1.2,2.4
		c-2.6-0.6-5.6-0.9-8.3-1.1c-0.1-0.4,0-1-0.1-1.3h-1.2c-0.1,0.5,0.1,0.9-0.1,1.4c-2.8,0.1-5.5,0.4-8.1,1L-78.7,87.8z M-69.3,98.1
		c-0.9,0.2-2,0.2-2.9,0.4c-1.8-2.2-3.4-4.6-4.7-7l0.2-0.2c2.3-0.4,4.8-0.8,7.3-0.8L-69.3,98.1z M-60.5,91.4l0,0.1
		c-1.3,2.4-2.8,4.8-4.5,7c-0.8,0.1-1.5-0.2-2.2-0.3l-0.8-0.1c-0.1-2.6-0.1-5,0-7.6C-65.4,90.6-62.9,90.9-60.5,91.4z M-78.2,91.8
		c1.3,2.5,2.9,4.8,4.5,7.1c-0.6,0.4-1.4,0.6-2,0.9c-3-1.5-5.8-3.5-8.2-6v-0.1c1.7-0.9,3.6-1.5,5.5-2L-78.2,91.8z M-53.5,93.7
		c-1.4,1.7-3.3,3.1-5,4.3c-1,0.6-2.1,1.3-3.1,1.8l-1.9-0.9l0.1-0.3c1.6-2.2,3-4.4,4.3-6.8l0.1-0.1C-57.1,92.3-55.3,92.9-53.5,93.7z
		 M-48.7,96.3c-2.5,2-5.4,3.4-8.4,4.5l-2.1,0.7c-0.4-0.2-0.7-0.4-1-0.7l0.1-0.1c2.9-1.7,5.5-3.8,7.9-6.2
		C-51,94.9-49.8,95.5-48.7,96.3z M-77.2,100.7c-0.2,0.3-0.6,0.5-0.9,0.7c-3.8-1-7.3-2.7-10.5-5v-0.1c1.1-0.7,2.2-1.4,3.3-1.9
		C-82.7,97-80,98.9-77.2,100.7z M-61.1,101.8c0.1,0.3-0.2,0.2-0.3,0.3c-4.8,1-10,1.1-14.8-0.1c-0.1-0.2,0.2-0.3,0.4-0.4
		C-71.7,98.8-65.2,98.8-61.1,101.8z"/>
</g>
<defs>
	
	
		<inkscape:perspective  id="perspective9" inkscape:persp3d-origin="372.04724 : 350.78739 : 1" inkscape:vp_x="0 : 526.18109 : 1" inkscape:vp_y="0 : 1000 : 0" inkscape:vp_z="744.09448 : 526.18109 : 1" sodipodi:type="inkscape:persp3d">
		</inkscape:perspective>
</defs>
<sodipodi:namedview  bordercolor="#666666" borderopacity="1.0" gridtolerance="10.0" guidetolerance="10.0" id="base" inkscape:current-layer="g11" inkscape:cx="-88.803419" inkscape:cy="74.121048" inkscape:pageopacity="0.0" inkscape:pageshadow="2" inkscape:window-height="667" inkscape:window-width="872" inkscape:window-x="88" inkscape:window-y="146" inkscape:zoom="1.17" objecttolerance="10.0" pagecolor="#ffffff" showgrid="false">
	</sodipodi:namedview>
<g>
	<path d="M77,42.4c-3.3,1.7-5.4,5.1-6.1,8.5c-1.2,5.7-0.9,12.5,3.4,16.7c5,4.5,12.3,5.5,18.8,3.6c0.3-0.1,1.3-0.3,2-0.7l0.2-0.1
		c2-0.9,3.9-2.2,5.4-4.1c3.3-4.9,3.5-12.3,1.5-17.9c-0.8-2.2-2.5-4.1-4.5-5.5C91.9,39.3,83,39,77,42.4z M91.2,49.5
		c0.7,1,0.6,2.4,0.8,3.6c0,2.6,0.2,5.6-0.3,8.2c-0.2,1.1-0.9,2.2-2.1,2.6c-1.8,0.8-4.2,0.6-5.9-0.4c-1.4-1-1.6-2.6-1.7-4.2
		c-0.1-3.1-0.4-6.4,0.5-9.2c0.7-1.7,2.5-2.2,4.2-2.3C88.4,47.8,90.1,48.1,91.2,49.5z"/>
	<path d="M59.7,41.6c-4.9-2.1-11.8-2.3-16.3,0.9c-2.9,2.2-3.8,6-3,9.4c0.6,3.2,3.6,5.6,6.5,6.7c4,1.4,8.2,2.5,12.2,3.9
		c0.4,0.2,0.9,0.6,0.9,1.1c0,0.4-0.4,0.6-0.7,0.8c-4.2,1.2-8.8,0.3-11.8-3c-0.4-0.4-0.6-1-0.9-1.4l-6.1,0c-0.1,3.6-0.1,7.8,0,11.4
		l6.7,0l0.1-2.2c0.8,0.4,1.5,0.8,2.3,1.2c4.7,2,10.7,2.4,15.3,0c3.4-1.9,5.2-5.5,4.7-9.4c-0.5-3.8-4.1-7.3-7.7-8.2l-10.9-3.2
		l-0.8-0.4c-0.4-0.3-0.6-0.7-0.5-1.2c0.9-1.5,2.8-1,4.3-1c3.1,0.4,6.4,1.5,8.2,4.4c2,0,4.3,0,6.4,0c0.1-3.7,0-6.9-0.1-10.6
		c-2,0-4.5,0-6.5,0c-0.1,0.5,0.1,1.3-0.1,1.8L59.7,41.6z"/>
	<path d="M31.7,37c1.1-1.5,2.3-3,3.6-4.4c1.2-1.1,2.2-2.2,3.5-3c1.2,0.8,2.5,1.4,3.6,2.1c-1.4,1.7-2.8,3.5-3.9,5.4
		c0.3,0.1,0.9,0.1,1.3,0c1.1-1.7,2.3-3.3,3.8-4.8c1.9,0.7,3.8,1.5,5.8,2l0.2,0.2L48.5,37c0.5,0.1,0.8,0,1.3,0
		c0.4-0.8,0.7-1.6,1.2-2.4c2.6,0.6,5.3,0.9,8.1,1c0.4,0.3,0.1,1,0.2,1.4h1.2c0.1-0.4,0-0.9,0.1-1.3c2.6-0.1,5.3-0.4,7.8-1l0.2,0
		l1.2,2.3c0.4,0,0.9,0.1,1.3-0.1L70,34.3l0.1-0.1c2.1-0.5,4-1.3,6-2.2c1.4,1.5,2.7,3.2,3.9,4.9c0.5,0,1,0,1.3-0.1
		c-0.5-1-1.2-2-1.9-2.8c-0.6-0.9-1.2-1.6-2-2.4v-0.2l3.1-1.8l0.4-0.2c2.7,2.1,5.2,4.7,7.1,7.5c0.5,0,1,0.2,1.4,0
		c-6-9.1-15.9-15-26.6-15.9l0,0.1L62.7,21c-1.2-0.1-2.7-0.2-4,0c-0.5,0-1.1,0-1.7,0c-10.8,0.9-20.7,6.5-26.9,16
		C30.7,37,31.2,37.1,31.7,37z M50.3,33l-0.2,0c-1.8-0.5-3.6-1.1-5.3-1.8l0.1-0.3c2.5-2.4,5.1-4.3,7.9-5.9c0.7,0.3,1.3,0.5,2,0.8
		l-0.1,0.4C53,28.4,51.6,30.7,50.3,33z M59.2,34.2c-1.3,0.2-2.4,0-3.6-0.1c-1.2-0.2-2.7-0.3-3.9-0.7c1.3-2.5,2.8-4.8,4.7-7l2.9,0.4
		C59.3,29.1,59.2,31.7,59.2,34.2z M60.6,34.3c-0.1-2.4,0-5,0-7.5c0.9-0.1,1.9-0.3,2.8-0.4c1.7,2.2,3.5,4.5,4.6,7
		C65.6,33.9,63.1,34.3,60.6,34.3z M74.9,31.1c-1.7,0.8-3.5,1.5-5.5,1.9c-1.4-2.4-2.9-4.8-4.6-7c0.6-0.4,1.4-0.6,2.1-1
		c2.9,1.5,5.7,3.6,8.1,6L74.9,31.1z M69.1,23.5c3.8,1,7.3,2.7,10.5,5l-0.1,0.2l-3.1,1.7h-0.2c-2.4-2.4-5.2-4.5-8-6.2
		C68.4,23.9,68.8,23.7,69.1,23.5z M67.4,23L67.4,23c-3.9,3-10.2,3.2-14.3,0.6c-0.2-0.2-0.7-0.3-0.7-0.6C57,21.9,62.6,21.8,67.4,23z
		 M40,28.6c2.8-2.1,6-3.7,9.3-4.8c0.1-0.1,0.2-0.3,0.4-0.3v0.1c0.4,0.1,0.6-0.3,0.9,0c0.3,0.2,0.6,0.4,0.8,0.6
		c-2.8,1.7-5.5,3.8-8,6.3C42.2,30.1,41.1,29.4,40,28.6L40,28.6z"/>
	<path d="M38.5,71.5v-7.4c-1.5-0.1-3.1,0-4.6-0.1l0-15.7l0.1-0.1l4.4,0c0-2.6,0.1-5.3,0-7.6l-16.9,0l-2.8,0c0,2.4,0,5.2,0,7.6
		c1.5,0,3,0,4.4,0.1v15.2l0,0.6l-4.4,0.1c-0.1,2.5-0.1,4.9,0,7.4H38.5z"/>
	<path d="M88.3,74.8c-1.9,2.7-4.3,5.4-6.9,7.4c-0.1,0.1-0.4,0.1-0.4,0c-1.1-0.7-2.3-1.3-3.4-2c1.4-1.7,2.8-3.5,3.9-5.4h-1.4
		c-1.1,1.7-2.3,3.4-3.8,4.9c-2-0.8-3.8-1.5-5.8-2.1l-0.2-0.2c0.3-0.9,0.9-1.7,1.1-2.6h-1.2L69,77.2c-2.6-0.6-5.6-0.9-8.3-1.1
		c-0.1-0.4,0-1-0.1-1.3h-1.2c-0.1,0.5,0.1,0.9-0.1,1.4c-2.8,0.1-5.5,0.4-8.1,1L50,74.8c-0.4,0-0.9-0.1-1.3,0l1.1,2.6l-0.1,0.1
		c-2,0.6-4,1.3-5.9,2.1l-0.2-0.1c-1.3-1.4-2.5-2.9-3.5-4.4c-0.2-0.8-1.1-0.3-1.6-0.4c1.1,2,2.5,3.7,3.9,5.5
		c-1.2,0.7-2.4,1.5-3.7,2.1c-2.7-2.1-5.2-4.8-7.1-7.6c-0.5-0.1-0.9,0-1.4,0c3.2,5.1,8.3,9.6,13.5,12.2c0,0,0,0,0,0
		c0,0,0.1,0.1,0,0.1c3.5,1.7,7.3,3,11.3,3.5c13.8,1.8,26.9-4.1,34.5-15.9C89.3,74.8,88.7,74.8,88.3,74.8z M69.6,78.9l0.1-0.1
		c1.9,0.4,3.8,1.1,5.5,1.9c-1.4,1.7-3.3,3.1-5,4.3c-1,0.6-2.1,1.3-3.1,1.8L65.2,86l0.1-0.3C66.9,83.5,68.3,81.3,69.6,78.9z
		 M60.8,77.5c2.6,0,5.1,0.3,7.5,0.9l0,0.1c-1.3,2.4-2.8,4.8-4.5,7c-0.8,0.1-1.5-0.2-2.2-0.3l-0.8-0.1C60.7,82.5,60.6,80.2,60.8,77.5
		z M52.1,78.3c2.3-0.4,4.8-0.8,7.3-0.8l0,7.6c-0.9,0.2-2,0.2-2.9,0.4c-1.8-2.2-3.4-4.6-4.7-7L52.1,78.3z M44.9,80.8
		c1.7-0.9,3.6-1.5,5.5-2l0.2,0c1.3,2.5,2.9,4.8,4.5,7.1c-0.6,0.4-1.4,0.6-2,0.9c-3-1.5-5.8-3.5-8.2-6V80.8z M50.7,88.4
		c-3.8-1-7.3-2.7-10.5-5v-0.1c1.1-0.7,2.2-1.4,3.3-1.9c2.6,2.6,5.2,4.5,8.1,6.3C51.3,88,51,88.3,50.7,88.4z M67.3,89
		c-4.8,1-10,1.1-14.8-0.1c-0.1-0.2,0.2-0.3,0.4-0.4c4.2-2.7,10.7-2.7,14.8,0.2C67.8,89,67.4,88.9,67.3,89z M71.6,87.8l-2.1,0.7
		c-0.4-0.2-0.7-0.4-1-0.7l0.1-0.1c2.9-1.7,5.5-3.8,7.9-6.2c1.2,0.5,2.4,1.2,3.5,1.9C77.5,85.3,74.6,86.6,71.6,87.8z"/>
</g>
</svg>
